<svg version="1.1" id="レイヤー_1" xmlns="http://www.w3.org/2000/svg" xmlns:xlink="http://www.w3.org/1999/xlink" x="0px" y="0px" viewBox="0 0 34 34" xml:space="preserve">
	<g id="グループ_1173" transform="translate(122 678)">
		<g id="グループ_694" transform="translate(329 296.462)">
			<path id="パス_366" d="M-425.8-966.7c0.1-0.3,0.2-0.3,0.4-0.3h7.3c0.2,0,0.3,0,0.2,0.3c-0.1,0.2-2.1,5.9-2.4,6.7
				c0,0.1-0.2,0.2-0.3,0.2h-6.4c-1.1,0-1.1,0-1.5,1.3c-0.9,2.6-2.6,7.7-2.9,8.6c0,0.1-0.1,0.2-0.2,0.2h-4.8c-0.1,0-0.1-0.1-0.1-0.2
				c0.4-1.3,3.5-10.2,3.6-10.4c0.1-0.3,0.3-0.6,0.7-0.6h2c1.3,0.2,2.6-0.6,3-1.9C-427.2-962.7-425.9-966.5-425.8-966.7"/>
			<path id="パス_367" d="M-432.2-967c-1.3-0.1-2.6,0-4,0.1c-6.7,0.7-11.6,4.3-13.3,9.5c-2,6.1,2.1,9.7,4.9,10.7
				c0.1,0,0.3,0,0.3-0.1s0.4-0.9,0.4-1s0-0.2-0.2-0.3c-2.8-1.2-3.8-4.1-2.7-6.9c1.2-3.1,4.9-5,8.3-5.4c0.4-0.1,1.2-0.1,1.8-0.1
				c1.7,0,2.6-0.4,3.1-1.6c0.5-1.3,1.5-4.2,1.5-4.5C-432-966.9-432.1-967-432.2-967z"/>
			<path id="パス_368" d="M-435.5-957.2h-3.1c-1.2,0.1-2.3,0.9-2.7,2.1c-0.3,0.8-1.6,4.5-1.9,5.3c0,0.1,0,0.2,0.1,0.2
				h5c0.1,0,0.2-0.1,0.2-0.2c0.3-1,2.4-7,2.4-7.1C-435.3-957-435.4-957.2-435.5-957.2C-435.5-957.2-435.5-957.2-435.5-957.2z"/>
		</g>
	</g>
</svg>
